This is the Version of Legend Starring Tom Cruise with the Tangerine Dream Score.
It is the best musical version of the movie and it is the Non directors cut.
My Wife could not find it on TPB so I decided to get it and put it here Where it Belongs! Seed it please cause its the only version worth watching.

File Information

General
Complete name                    : C:TempDVDLegend - (Tangerine Dream Score) Non Directors Cut(Best Version).AVI
Format                           : AVI
Format/Info                      : Audio Video Interleave
File size                        : 871 MiB
Duration                         : 1h 29mn
Overall bit rate                 : 1 362 Kbps

Video
ID                               : 0
Format                           : MPEG-4 Visual
Format profile                   : Simple@L3
Format settings, BVOP            : No
Format settings, QPel            : No
Format settings, GMC             : No warppoints
Format settings, Matrix          : Default (H.263)
Codec ID                         : XVID
Codec ID/Hint                    : XviD
Duration                         : 1h 29mn
Bit rate                         : 1 226 Kbps
Width                            : 720 pixels
Height                           : 480 pixels
Display aspect ratio             : 1.500
Frame rate                       : 29.970 fps
Standard                         : NTSC
Resolution                       : 24 bits
Colorimetry                      : 4:2:0
Scan type                        : Progressive
Bits/(Pixel*Frame)               : 0.118
Stream size                      : 784 MiB (90%)
Writing library                  : ZJMedia MPEG Encoder

Audio
ID                               : 1
Format                           : MPEG Audio
Format version                   : Version 1
Format profile                   : Layer 3
Codec ID                         : 55
Codec ID/Hint                    : MP3
Duration                         : 1h 29mn
Bit rate mode                    : Constant
Bit rate                         : 128 Kbps
Channel(s)                       : 2 channels
Sampling rate                    : 44.1 KHz
Resolution                       : 16 bits
Stream size                      : 81.8 MiB (9%)
Alignment                        : Split accross interleaves
Interleave, duration             : 968 ms (29.00 video frames)

